<svg width="40" height="40" viewBox="0 0 40 40" fill="none" xmlns="http://www.w3.org/2000/svg">
<path d="M0 8C0 3.58172 3.58172 0 8 0H32C36.4183 0 40 3.58172 40 8V32C40 36.4183 36.4183 40 32 40H8C3.58172 40 0 36.4183 0 32V8Z" fill="#007AFF"/>
<path d="M21.6797 33.458L21.1914 12.4229C21.1914 12.4229 19.5312 11.4268 15.4492 10.333C11.3672 9.23926 8.59375 9.23926 8.59375 9.23926L8.10547 29.9229C8.10547 29.9229 10.4004 30.7334 14.6875 31.7979C18.9746 32.8623 21.6797 33.458 21.6797 33.458Z" fill="black"/>
<path d="M21.6797 33.458L21.1914 12.4229C21.1914 12.4229 19.5312 11.4268 15.4492 10.333C11.3672 9.23926 8.59375 9.23926 8.59375 9.23926L8.10547 29.9229C8.10547 29.9229 10.4004 30.7334 14.6875 31.7979C18.9746 32.8623 21.6797 33.458 21.6797 33.458Z" fill="black"/>
<path d="M2.65625 28.3225L3.20312 7.93185C3.20312 7.93185 4.55078 7.89102 6.30859 8.16445C8.06641 8.43789 9.53125 8.55508 9.53125 8.55508L8.47656 29.9223C8.47656 29.9223 7.71484 29.8353 5.89844 29.4145C4.08203 28.9936 2.65625 28.3225 2.65625 28.3225Z" fill="white"/>
<path d="M3.20312 7.93185C3.20312 7.93185 4.55078 7.89099 6.30859 8.16443C8.06571 8.43776 9.53009 8.55496 9.53125 8.55506L8.47656 29.9222C8.47566 29.9221 7.71376 29.835 5.89844 29.4144C4.30908 29.0462 3.0188 28.4863 2.72106 28.3521L2.65625 28.3225L3.20312 7.93185ZM3.84918 27.5525C3.9005 27.5725 3.95423 27.5932 4.01028 27.6144C4.56016 27.822 5.31924 28.0773 6.16295 28.2728C6.64029 28.3834 7.04129 28.4699 7.3716 28.5374L8.30578 9.61108C7.72264 9.54623 6.9582 9.45145 6.12846 9.32238C5.448 9.21653 4.83185 9.16068 4.34322 9.13165L3.84918 27.5525ZM3.15479 27.2619C3.1547 27.2619 3.15463 27.2618 3.15456 27.2618C3.15439 27.2617 3.1543 27.2617 3.1543 27.2617C3.1543 27.2617 3.15447 27.2618 3.15479 27.2619Z" fill="black"/>
<path d="M22.4023 32.6562L18.457 37.4432C18.457 37.4432 13.1055 36.3477 9.02344 35.2539C4.94141 34.1601 3.86719 33.4588 3.86719 33.4588L8.28125 29.2969C8.28125 29.2969 10.4688 29.7656 14.2383 30.7227C18.0078 31.6797 22.4023 32.6562 22.4023 32.6562Z" fill="white"/>
<path d="M8.28125 29.2969C8.28125 29.2969 10.4688 29.7656 14.2383 30.7227C18.0078 31.6797 22.4023 32.6563 22.4023 32.6563L18.457 37.4432C18.4537 37.4425 13.2701 36.3813 9.2157 35.3052L9.02344 35.2539C4.94141 34.1602 3.86719 33.4588 3.86719 33.4588L8.28125 29.2969ZM5.96478 33.0917C6.71612 33.3636 7.80062 33.7131 9.32674 34.122C11.3435 34.6624 13.6828 35.2054 15.5252 35.6147C16.4448 35.819 17.2374 35.9893 17.7999 36.1085C17.8714 36.1236 17.9393 36.1379 18.0031 36.1513L20.2883 33.3787C20.034 33.3203 19.7597 33.2572 19.4693 33.19C17.896 32.8254 15.846 32.3399 13.9499 31.8585C12.0733 31.382 10.5917 31.0274 9.58069 30.7923C9.19515 30.7026 8.87807 30.6303 8.63365 30.5752L5.96478 33.0917Z" fill="black"/>
<path d="M25.4492 4.88477C25.4492 4.88477 28.1934 5.34375 32.4805 6.4082C36.4998 7.40616 37.2401 8.47278 37.3169 8.60215L37.3242 8.61523V15.8809C37.3242 21.5254 36.6992 28.8283 36.6992 28.8283L21.6602 33.4394C21.6602 33.4394 21.1914 24.8652 21.1914 21.2324C21.1914 17.7539 21.1735 12.8249 21.172 12.4125C20.9755 12.2995 19.2773 11.3597 15.4492 10.334C11.3672 9.24023 8.59375 9.24023 8.59375 9.24023L25.4492 4.88477Z" fill="white"/>
<path d="M36.1523 15.8809V9.08402C35.7729 8.79612 34.727 8.17346 32.1981 7.54555C30.0729 7.01788 28.3317 6.64067 27.1243 6.39581C26.5206 6.27339 26.0506 6.1841 25.7329 6.12565C25.6415 6.10882 25.5626 6.09458 25.4969 6.08281L14.572 8.9058C14.9522 8.99476 15.3462 9.09316 15.7525 9.20205C19.6702 10.2518 21.464 11.2286 21.7561 11.3965L22.3413 11.733L22.3438 12.4081C22.3453 12.8204 22.3633 17.7514 22.3633 21.2324C22.3633 23.0183 22.4791 26.0443 22.5965 28.6454C22.6526 29.8897 22.7088 31.0298 22.752 31.879L35.5952 27.9411C35.6053 27.8116 35.6164 27.6676 35.6284 27.5105C35.6866 26.7419 35.7643 25.6582 35.8421 24.3991C35.9929 21.955 36.1427 18.8671 36.1519 16.1433L36.1523 15.8809ZM37.3242 15.8809C37.3242 21.5254 36.6992 28.8283 36.6992 28.8283L21.6602 33.4394C21.6602 33.4394 21.1914 24.8652 21.1914 21.2324C21.1914 17.7539 21.1735 12.8249 21.172 12.4125C20.9755 12.2995 19.2773 11.3597 15.4492 10.334C11.3672 9.24023 8.59375 9.24023 8.59375 9.24023L25.4492 4.88477C25.4492 4.88477 28.1934 5.34375 32.4805 6.4082C36.4998 7.40616 37.2401 8.47278 37.3169 8.60215L37.3242 8.61523V15.8809Z" fill="black"/>
<path d="M21.0352 33.1641V11.1719C21.0352 11.1719 22.0312 11.4648 24.3164 11.6602C26.6016 11.8555 27.5781 11.7986 27.5781 11.7986L27.9688 33.9453C27.9688 33.9453 26.6211 34.1033 24.8633 33.9453C23.1055 33.7873 21.0352 33.1641 21.0352 33.1641Z" fill="white"/>
<path d="M21.0352 11.1719C21.0352 11.1719 22.0312 11.4648 24.3164 11.6602C26.6016 11.8555 27.5781 11.7986 27.5781 11.7986L27.9688 33.9453C27.9688 33.9453 26.6211 34.1033 24.8633 33.9453C23.1055 33.7873 21.0352 33.1641 21.0352 33.1641V11.1719ZM22.207 32.2684C22.3175 32.2963 22.4362 32.3256 22.5615 32.3554C23.2769 32.5258 24.1712 32.7065 24.9682 32.7781C25.6606 32.8404 26.2863 32.85 26.7772 32.8403L26.4266 12.9649C25.8871 12.9472 25.1576 12.9082 24.2166 12.8278C23.3949 12.7575 22.7292 12.6745 22.207 12.5952V32.2684ZM27.8328 32.7813C27.8328 32.7813 27.8326 32.7813 27.8326 32.7813C27.8328 32.7813 27.8331 32.7813 27.8333 32.7813L27.8328 32.7813Z" fill="black"/>
<path d="M8.59375 9.24005L6.89453 2.54083C6.89453 2.54083 10.166 2.45294 14.4531 3.51739C18.7402 4.58184 20.2148 5.66583 20.2148 5.66583C20.2148 5.66583 20.753 6.8963 21.3477 9.24005C21.9423 11.5838 21.6797 12.1307 21.6797 12.1307C21.6797 12.1307 19.5312 11.4276 15.4492 10.3338C11.3672 9.24005 8.59375 9.24005 8.59375 9.24005Z" fill="white"/>
<path d="M6.89453 2.54083C6.89564 2.5408 10.1667 2.45312 14.4531 3.51739C18.7349 4.58052 20.2112 5.66314 20.2148 5.66583C20.2148 5.66583 20.753 6.89631 21.3477 9.24005C21.9408 11.5776 21.6811 12.1278 21.6797 12.1307C21.6762 12.1295 19.5279 11.4267 15.4492 10.3338C11.3672 9.24005 8.59375 9.24005 8.59375 9.24005L6.89453 2.54083ZM9.51592 8.10941C9.81825 8.13076 10.1898 8.1632 10.623 8.21241C11.8761 8.35475 13.6479 8.63796 15.7525 9.20186C17.8045 9.75168 19.3727 10.2039 20.4303 10.5195C20.4314 10.5198 20.4326 10.5202 20.4338 10.5205C20.3817 10.2435 20.3099 9.91511 20.2118 9.52829C19.9232 8.39069 19.6498 7.52938 19.4514 6.95897C19.3806 6.75533 19.3193 6.58881 19.2703 6.46001C19.0974 6.36318 18.8336 6.22598 18.4637 6.06076C17.6289 5.68788 16.2547 5.17219 14.1707 4.65474C12.1005 4.14072 10.2749 3.90493 8.97034 3.79789C8.77166 3.78158 8.58524 3.76829 8.41209 3.75745L9.51592 8.10941ZM19.1407 6.13439C19.1408 6.13452 19.1409 6.13468 19.1409 6.13485L19.1406 6.13404C19.1406 6.13396 19.1405 6.13391 19.1405 6.13385C19.1405 6.13397 19.1406 6.13414 19.1407 6.13439Z" fill="black"/>
<path d="M15.2223 22.5986C18.155 25.745 14.5663 27.781 12.4054 27.1517C10.2445 26.5224 5.0738 28.0031 4.88086 25.3008C4.88086 23.8564 7.11774 23.7627 8.97112 20.8588C11.4793 16.2317 12.8028 11.2715 13.6402 11.2715C15.2254 11.2715 15.6854 18.971 15.2223 22.5986Z" fill="#FF769D"/>
<path d="M13.6618 10.6857C14.1127 10.6944 14.4388 10.9752 14.6509 11.2576C14.8691 11.5482 15.0393 11.9313 15.1773 12.3464C15.4556 13.1834 15.6527 14.3073 15.782 15.5122C16.0289 17.8132 16.0413 20.5368 15.8353 22.4048C16.506 23.183 16.858 23.9507 16.9078 24.6864C16.9629 25.5003 16.642 26.1872 16.1441 26.6995C15.1869 27.6841 13.5227 28.0873 12.2416 27.7142C11.7949 27.5842 11.1479 27.5548 10.3512 27.5629C9.5935 27.5707 8.69471 27.6128 7.88806 27.5893C7.08223 27.5658 6.24885 27.4773 5.58921 27.1739C5.25007 27.0178 4.93746 26.7965 4.70172 26.4813C4.46328 26.1626 4.32763 25.7798 4.29641 25.3426L4.29492 25.3217V25.3008C4.29492 24.7582 4.51616 24.3454 4.82978 24.0073C5.11812 23.6965 5.51414 23.4201 5.88958 23.1509C6.66189 22.5973 7.60445 21.9043 8.46622 20.5606C9.69739 18.2859 10.6399 15.9289 11.3904 14.1068C11.7626 13.2035 12.0951 12.4128 12.3909 11.8473C12.5376 11.5668 12.6909 11.3107 12.8529 11.1173C12.9891 10.9548 13.2539 10.6855 13.6402 10.6855L13.6618 10.6857ZM13.6972 11.9399C13.6247 12.0401 13.5355 12.1873 13.4293 12.3904C13.163 12.8995 12.8509 13.638 12.474 14.5532C11.7285 16.3629 10.7582 18.7915 9.48623 21.138L9.47627 21.1564L9.46502 21.1741C8.47636 22.7231 7.37854 23.5254 6.57233 24.1034C6.1569 24.4012 5.87788 24.6005 5.68889 24.8042C5.53118 24.9742 5.47125 25.1109 5.46706 25.2812C5.48661 25.5075 5.55324 25.6633 5.64014 25.7794C5.73254 25.903 5.87247 26.0142 6.07898 26.1092C6.51064 26.3078 7.14117 26.3952 7.92224 26.4179C8.7025 26.4407 9.51365 26.3996 10.3392 26.3911C11.1258 26.3831 11.9355 26.4045 12.5692 26.5891C13.449 26.8453 14.6596 26.5453 15.3038 25.8826C15.6066 25.5712 15.768 25.1986 15.7387 24.7655C15.7084 24.3189 15.4691 23.7228 14.7937 22.9981L14.6063 22.7971L14.6411 22.5244C14.8656 20.765 14.8682 17.9802 14.6168 15.6372C14.4908 14.4637 14.3046 13.436 14.0653 12.716C13.9445 12.3526 13.8223 12.1058 13.7138 11.9612C13.708 11.9536 13.7024 11.9465 13.6972 11.9399Z" fill="black"/>
<mask id="mask0_241_512" style="mask-type:alpha" maskUnits="userSpaceOnUse" x="4" y="11" width="13" height="17">
<path d="M15.2223 22.5986C18.155 25.745 14.5663 27.781 12.4054 27.1517C10.2445 26.5224 5.0738 28.0031 4.88086 25.3008C4.88086 23.8564 7.11774 23.7627 8.97112 20.8588C11.4793 16.2317 12.8028 11.2715 13.6402 11.2715C15.2254 11.2715 15.6854 18.971 15.2223 22.5986Z" fill="#D9D9D9"/>
</mask>
<g mask="url(#mask0_241_512)">
<path d="M15.1202 27.5173C14.8296 28.1815 13.6377 28.3351 12.4579 27.8602C11.2782 27.3853 10.5573 26.4618 10.8479 25.7975C11.1385 25.1332 12.3304 24.9797 13.5102 25.4546C14.6899 25.9295 15.4108 26.853 15.1202 27.5173Z" fill="black"/>
</g>
</svg>
